<svg width="32" height="32" fill="none" xmlns="http://www.w3.org/2000/svg"><path d="M28.555 25.502a2.88 2.88 0 00.54-1.684v-3.756a.622.622 0 00-.619-.625h-2.768c-1.28 0-2.322 1.051-2.322 2.342v2.04c0 .627.201 1.208.54 1.682-.423.07-.83.206-1.21.407a5.263 5.263 0 00-3.892-2.34l-.019-.005c.58-.653.933-1.515.933-2.459V16a.622.622 0 00-.62-.625h-3.762c-1.617 0-2.932 1.327-2.932 2.958v2.771c0 .944.353 1.806.933 2.459l-.02.005a5.263 5.263 0 00-3.891 2.34 3.97 3.97 0 00-1.211-.407 2.88 2.88 0 00.54-1.683v-3.756a.622.622 0 00-.619-.625H5.387c-1.28 0-2.321 1.051-2.321 2.342v2.04c0 .628.201 1.21.541 1.683a4.07 4.07 0 00-3.386 4.021v1.852c0 .345.278.625.62.625h30.48c.342 0 .62-.28.62-.625v-1.852a4.07 4.07 0 00-3.386-4.02zM4.305 21.78c0-.602.486-1.091 1.082-1.091h2.15v.76a.675.675 0 01-.671.678h-2.56v-.347zm0 1.596h2.56c.237 0 .463-.043.671-.123v.566c0 .899-.724 1.63-1.615 1.63s-1.616-.731-1.616-1.63v-.443zm2.015 3.323l-.4.403-.399-.403h.8zm2.237 2.16v1.892H1.46v-1.227a2.822 2.822 0 012.347-2.787l1.676 1.69a.617.617 0 00.876 0l1.677-1.69c.296.048.58.144.846.285a5.331 5.331 0 00-.325 1.837zm7.524-5.314c-1.333 0-2.418-1.094-2.418-2.44v-.826h3.702c.41 0 .797-.105 1.134-.291v1.117c0 1.346-1.084 2.44-2.418 2.44zm1.08 1.25l-1.08 1.09-1.08-1.09h2.16zm-3.499-6.46c0-.943.76-1.709 1.694-1.709h3.143v1.259a1.14 1.14 0 01-1.134 1.144h-3.702v-.695zm8.704 12.416H9.796V29.5h4.034c.342 0 .62-.28.62-.625a.622.622 0 00-.62-.625H9.841c.266-1.776 1.675-3.178 3.445-3.418l2.357 2.377a.615.615 0 00.876 0l2.357-2.377c1.967.266 3.49 1.97 3.49 4.026v1.892zm2.26-8.97c0-.603.485-1.093 1.082-1.093h2.149v.762a.675.675 0 01-.671.677h-2.56v-.347zm0 1.595h2.56c.236 0 .462-.043.67-.123v.566c0 .899-.724 1.63-1.615 1.63-.89 0-1.616-.731-1.616-1.63v-.443zm2.014 3.323l-.399.403-.4-.403h.8zm-3.035 4.052v-1.892a5.33 5.33 0 00-.325-1.837c.265-.141.55-.237.846-.286l1.677 1.692a.617.617 0 00.876 0l1.676-1.691a2.822 2.822 0 012.347 2.787v1.227h-7.097zM19.134 4.084a.616.616 0 00-.877 0l-3.04 3.067-1.314-1.326a.616.616 0 00-.876 0 .63.63 0 000 .884l1.752 1.767a.617.617 0 00.877 0l3.478-3.509a.629.629 0 000-.883z" fill="#00B2FF"/><path d="M18.614.542a.617.617 0 00-.818.316.627.627 0 00.314.826 5.04 5.04 0 012.957 4.596c0 2.773-2.236 5.03-4.986 5.03-2.749 0-4.986-2.257-4.986-5.03a5.045 5.045 0 012.936-4.587.627.627 0 00.31-.827.617.617 0 00-.82-.312A6.298 6.298 0 009.857 6.28c0 3.463 2.793 6.28 6.225 6.28 3.433 0 6.225-2.817 6.225-6.28A6.293 6.293 0 0018.614.542z" fill="#00B2FF"/><path d="M16.103 0h-.022c-.342 0-.62.28-.62.625s.278.625.62.625h.019a.623.623 0 00.62-.622.622.622 0 00-.617-.628zm.416 28.433a.621.621 0 00-.438-.183.622.622 0 00-.62.625.622.622 0 00.62.625.621.621 0 00.62-.625.632.632 0 00-.182-.442z" fill="#00B2FF"/></svg>