<svg width="31" height="26" fill="none" xmlns="http://www.w3.org/2000/svg"><path d="M15.77 8.185a.593.593 0 10.002 1.187.593.593 0 00-.002-1.187z" fill="#00B2FF"/><path d="M29.148 11.748h-2.303C25.63 8.27 23.869 2.172 20.677.446c-1.596-.862-3.105-.26-3.672.963a1.34 1.34 0 01-1.235.794 1.34 1.34 0 01-1.236-.793c-.547-1.182-2.02-1.84-3.56-1.09-3.242 1.58-5.056 7.924-6.28 11.428H2.391c-.981 0-1.776.797-1.776 1.782a1.78 1.78 0 001.776 1.781h26.757c.981 0 1.776-.797 1.776-1.781a1.78 1.78 0 00-1.776-1.782zM6.774 9.373h6.628a.593.593 0 000-1.188H7.188c1.784-4.944 3.451-6.381 4.303-6.796.93-.452 1.694-.074 1.97.522a2.523 2.523 0 002.309 1.48c.978 0 1.875-.547 2.308-1.48.284-.613 1.053-.952 2.037-.42.856.463 2.518 1.948 4.236 6.694h-6.214a.593.593 0 000 1.188h6.628l.825 2.375H5.95c.214-.614.524-1.505.825-2.375zm22.374 4.75H2.391a.594.594 0 010-1.187h26.757a.593.593 0 010 1.188zm-14.562 3.564H5.114a.593.593 0 00-.592.593v2.376C4.522 23.603 6.912 26 9.85 26a5.316 5.316 0 004.98-3.442 2.265 2.265 0 011.88 0A5.316 5.316 0 0021.69 26c2.937 0 5.327-2.398 5.327-5.345V18.28a.593.593 0 00-.592-.594h-9.471a.593.593 0 00-.592.594v.594h-1.184v-.594a.593.593 0 00-.592-.593zM9.85 24.812a4.154 4.154 0 01-4.144-4.156v-1.782h8.288v1.782a4.145 4.145 0 01-4.144 4.156zm7.696-5.938h8.287v1.782c0 2.292-1.859 4.156-4.143 4.156a4.145 4.145 0 01-4.144-4.156v-1.782zm-1.184 1.188v.594c0 .19.01.379.03.566a3.455 3.455 0 00-1.245 0c.02-.188.03-.377.03-.566v-.594h1.185z" fill="#00B2FF"/><path d="M9.85 22.437c-.98 0-1.776-.8-1.776-1.781a.593.593 0 10-1.184 0 2.968 2.968 0 002.96 2.969.593.593 0 000-1.188zm11.84 1.188a2.968 2.968 0 002.96-2.97.593.593 0 10-1.184 0 1.78 1.78 0 01-1.776 1.782.593.593 0 000 1.188z" fill="#00B2FF"/></svg>