<svg xmlns="http://www.w3.org/2000/svg" xmlns:xlink="http://www.w3.org/1999/xlink"><symbol id="icon-button-minus"><path d="M0 .5h16v1H0v-1z" fill="#C4C4C4"/></symbol><symbol id="icon-button-plus"><path fill-rule="evenodd" clip-rule="evenodd" d="M8.5 7.5V0h-1v7.5H0v1h7.5V16h1V8.5H16v-1H8.5z" fill="#C4C4C4"/></symbol><symbol id="icon-classmates"><path d="M13.851 10.957c1.016 0 1.806-.836 1.787-1.746.019-.91-.752-1.764-1.768-1.764-.978 0-1.787.78-1.787 1.746 0 .965.79 1.764 1.768 1.764z" fill="#CDCDCD"/><path d="M13.701 0C6.441 0 .535 5.831.535 13c0 7.187 5.906 13 13.166 13 7.279 0 13.166-5.831 13.166-13C26.885 5.83 20.98 0 13.7 0zm.188 4.921c2.37 0 4.326 1.932 4.307 4.29 0 2.377-1.975 4.29-4.382 4.253-2.37-.037-4.27-1.95-4.27-4.271 0-2.359 1.938-4.272 4.345-4.272zm4.834 10.029c0 .037-.019.056-.019.093a1.213 1.213 0 01-.564.873c-.207.13-.433.26-.659.371a8.55 8.55 0 01-1.786.65c-.075.019-.075.019-.02.074l1.035 1.022 1.317 1.3c.62.613.451 1.634-.339 2.006-.131.074-.282.092-.432.13h-.245c-.019 0-.037 0-.037-.02-.301-.036-.546-.185-.771-.39l-2.276-2.246c-.057-.056-.057-.056-.113 0l-2.295 2.265c-.131.13-.263.223-.432.298-.113.055-.245.074-.358.092h-.244c-.038 0-.057-.018-.094-.018-.508-.093-.847-.372-.997-.854-.15-.483-.038-.91.32-1.263l.94-.929 1.392-1.374c.056-.056.056-.056-.019-.074-.019 0-.056-.019-.075-.019a8.182 8.182 0 01-2.351-.984c-.433-.279-.64-.687-.583-1.189.094-.928 1.147-1.43 1.937-.928.15.092.282.167.451.241a5.413 5.413 0 002.746.557c.47-.018.94-.111 1.411-.26.451-.148.846-.353 1.26-.575.677-.39 1.561-.075 1.825.65.037.11.056.204.075.315v.186z" fill="#CDCDCD"/></symbol><symbol id="icon-detective"><path d="M15.77 8.185a.593.593 0 10.002 1.187.593.593 0 00-.002-1.187z" fill="#00B2FF"/><path d="M29.148 11.748h-2.303C25.63 8.27 23.869 2.172 20.677.446c-1.596-.862-3.105-.26-3.672.963a1.34 1.34 0 01-1.235.794 1.34 1.34 0 01-1.236-.793c-.547-1.182-2.02-1.84-3.56-1.09-3.242 1.58-5.056 7.924-6.28 11.428H2.391c-.981 0-1.776.797-1.776 1.782a1.78 1.78 0 001.776 1.781h26.757c.981 0 1.776-.797 1.776-1.781a1.78 1.78 0 00-1.776-1.782zM6.774 9.373h6.628a.593.593 0 000-1.188H7.188c1.784-4.944 3.451-6.381 4.303-6.796.93-.452 1.694-.074 1.97.522a2.523 2.523 0 002.309 1.48c.978 0 1.875-.547 2.308-1.48.284-.613 1.053-.952 2.037-.42.856.463 2.518 1.948 4.236 6.694h-6.214a.593.593 0 000 1.188h6.628l.825 2.375H5.95c.214-.614.524-1.505.825-2.375zm22.374 4.75H2.391a.594.594 0 010-1.187h26.757a.593.593 0 010 1.188zm-14.562 3.564H5.114a.593.593 0 00-.592.593v2.376C4.522 23.603 6.912 26 9.85 26a5.316 5.316 0 004.98-3.442 2.265 2.265 0 011.88 0A5.316 5.316 0 0021.69 26c2.937 0 5.327-2.398 5.327-5.345V18.28a.593.593 0 00-.592-.594h-9.471a.593.593 0 00-.592.594v.594h-1.184v-.594a.593.593 0 00-.592-.593zM9.85 24.812a4.154 4.154 0 01-4.144-4.156v-1.782h8.288v1.782a4.145 4.145 0 01-4.144 4.156zm7.696-5.938h8.287v1.782c0 2.292-1.859 4.156-4.143 4.156a4.145 4.145 0 01-4.144-4.156v-1.782zm-1.184 1.188v.594c0 .19.01.379.03.566a3.455 3.455 0 00-1.245 0c.02-.188.03-.377.03-.566v-.594h1.185z" fill="#00B2FF"/><path d="M9.85 22.437c-.98 0-1.776-.8-1.776-1.781a.593.593 0 10-1.184 0 2.968 2.968 0 002.96 2.969.593.593 0 000-1.188zm11.84 1.188a2.968 2.968 0 002.96-2.97.593.593 0 10-1.184 0 1.78 1.78 0 01-1.776 1.782.593.593 0 000 1.188z" fill="#00B2FF"/></symbol><symbol id="icon-email"><path d="M22.24 0H3.099C1.389 0 0 1.345 0 3v12.667c0 1.655 1.39 3 3.098 3h19.137c1.71 0 3.098-1.345 3.098-3V3.005C25.34 1.35 23.95 0 22.241 0zm1.683 15.667c0 .899-.754 1.63-1.682 1.63H3.098c-.928 0-1.683-.732-1.683-1.63V3.005c0-.899.755-1.63 1.683-1.63h19.137c.928 0 1.683.731 1.683 1.63v12.662h.005z" fill="#00B2FF"/><path d="M15.977 9.176l6.195-5.38a.673.673 0 00.053-.97.728.728 0 00-1.001-.05l-8.544 7.425-1.667-1.441c-.005-.005-.01-.01-.01-.015a1.043 1.043 0 00-.116-.097L4.104 2.771a.723.723 0 00-1 .056.67.67 0 00.057.97L9.43 9.221 3.187 14.88a.673.673 0 00-.031.969.722.722 0 001.001.036l6.337-5.74 1.72 1.486a.72.72 0 00.943-.005l1.766-1.532 6.3 5.795a.716.716 0 00.488.188.718.718 0 00.514-.213.672.672 0 00-.026-.97l-6.222-5.719z" fill="#00B2FF"/></symbol><symbol id="icon-fb"><path fill-rule="evenodd" clip-rule="evenodd" d="M27 13.5C27 6.045 20.956 0 13.5 0S0 6.045 0 13.5C0 20.956 6.044 27 13.5 27S27 20.956 27 13.5zM16.884 9.294h-1.74c-.469 0-.798.397-.798.891v.775h2.485l-.402 2.517h-2.083v6.747h-2.543v-6.747h-1.688V10.96h1.688V9.677h.004c.045-1.463.553-2.856 3.031-2.944v-.01h2.046v2.571z" fill="#CDCDCD"/></symbol><symbol id="icon-hired"><path d="M28.555 25.502a2.88 2.88 0 00.54-1.684v-3.756a.622.622 0 00-.619-.625h-2.768c-1.28 0-2.322 1.051-2.322 2.342v2.04c0 .627.201 1.208.54 1.682-.423.07-.83.206-1.21.407a5.263 5.263 0 00-3.892-2.34l-.019-.005c.58-.653.933-1.515.933-2.459V16a.622.622 0 00-.62-.625h-3.762c-1.617 0-2.932 1.327-2.932 2.958v2.771c0 .944.353 1.806.933 2.459l-.02.005a5.263 5.263 0 00-3.891 2.34 3.97 3.97 0 00-1.211-.407 2.88 2.88 0 00.54-1.683v-3.756a.622.622 0 00-.619-.625H5.387c-1.28 0-2.321 1.051-2.321 2.342v2.04c0 .628.201 1.21.541 1.683a4.07 4.07 0 00-3.386 4.021v1.852c0 .345.278.625.62.625h30.48c.342 0 .62-.28.62-.625v-1.852a4.07 4.07 0 00-3.386-4.02zM4.305 21.78c0-.602.486-1.091 1.082-1.091h2.15v.76a.675.675 0 01-.671.678h-2.56v-.347zm0 1.596h2.56c.237 0 .463-.043.671-.123v.566c0 .899-.724 1.63-1.615 1.63s-1.616-.731-1.616-1.63v-.443zm2.015 3.323l-.4.403-.399-.403h.8zm2.237 2.16v1.892H1.46v-1.227a2.822 2.822 0 012.347-2.787l1.676 1.69a.617.617 0 00.876 0l1.677-1.69c.296.048.58.144.846.285a5.331 5.331 0 00-.325 1.837zm7.524-5.314c-1.333 0-2.418-1.094-2.418-2.44v-.826h3.702c.41 0 .797-.105 1.134-.291v1.117c0 1.346-1.084 2.44-2.418 2.44zm1.08 1.25l-1.08 1.09-1.08-1.09h2.16zm-3.499-6.46c0-.943.76-1.709 1.694-1.709h3.143v1.259a1.14 1.14 0 01-1.134 1.144h-3.702v-.695zm8.704 12.416H9.796V29.5h4.034c.342 0 .62-.28.62-.625a.622.622 0 00-.62-.625H9.841c.266-1.776 1.675-3.178 3.445-3.418l2.357 2.377a.615.615 0 00.876 0l2.357-2.377c1.967.266 3.49 1.97 3.49 4.026v1.892zm2.26-8.97c0-.603.485-1.093 1.082-1.093h2.149v.762a.675.675 0 01-.671.677h-2.56v-.347zm0 1.595h2.56c.236 0 .462-.043.67-.123v.566c0 .899-.724 1.63-1.615 1.63-.89 0-1.616-.731-1.616-1.63v-.443zm2.014 3.323l-.399.403-.4-.403h.8zm-3.035 4.052v-1.892a5.33 5.33 0 00-.325-1.837c.265-.141.55-.237.846-.286l1.677 1.692a.617.617 0 00.876 0l1.676-1.691a2.822 2.822 0 012.347 2.787v1.227h-7.097zM19.134 4.084a.616.616 0 00-.877 0l-3.04 3.067-1.314-1.326a.616.616 0 00-.876 0 .63.63 0 000 .884l1.752 1.767a.617.617 0 00.877 0l3.478-3.509a.629.629 0 000-.883z" fill="#00B2FF"/><path d="M18.614.542a.617.617 0 00-.818.316.627.627 0 00.314.826 5.04 5.04 0 012.957 4.596c0 2.773-2.236 5.03-4.986 5.03-2.749 0-4.986-2.257-4.986-5.03a5.045 5.045 0 012.936-4.587.627.627 0 00.31-.827.617.617 0 00-.82-.312A6.298 6.298 0 009.857 6.28c0 3.463 2.793 6.28 6.225 6.28 3.433 0 6.225-2.817 6.225-6.28A6.293 6.293 0 0018.614.542z" fill="#00B2FF"/><path d="M16.103 0h-.022c-.342 0-.62.28-.62.625s.278.625.62.625h.019a.623.623 0 00.62-.622.622.622 0 00-.617-.628zm.416 28.433a.621.621 0 00-.438-.183.622.622 0 00-.62.625.622.622 0 00.62.625.621.621 0 00.62-.625.632.632 0 00-.182-.442z" fill="#00B2FF"/></symbol><symbol id="icon-phone"><path d="M19.645 14.867c-.492-.512-1.086-.785-1.715-.785-.624 0-1.222.268-1.735.78l-1.603 1.596c-.132-.071-.264-.137-.39-.203a6.451 6.451 0 01-.503-.268c-1.501-.953-2.866-2.194-4.174-3.8-.635-.8-1.06-1.473-1.37-2.157.416-.38.801-.775 1.177-1.155.142-.142.284-.289.426-.43 1.065-1.064 1.065-2.442 0-3.506L8.373 3.556c-.157-.157-.32-.319-.472-.481a23.938 23.938 0 00-.953-.942c-.492-.486-1.08-.745-1.7-.745-.619 0-1.217.259-1.724.745l-.01.01L1.788 3.88a3.704 3.704 0 00-1.1 2.356c-.122 1.479.314 2.857.65 3.758.821 2.214 2.049 4.265 3.88 6.464 2.222 2.649 4.895 4.74 7.949 6.215 1.167.552 2.724 1.205 4.464 1.317.106.005.218.01.32.01 1.171 0 2.155-.42 2.926-1.256.005-.01.016-.015.02-.026.264-.319.569-.607.888-.916.218-.208.442-.426.66-.654.502-.522.766-1.13.766-1.752 0-.629-.269-1.231-.781-1.738l-2.785-2.79zm1.816 5.334c-.005 0-.005.005 0 0-.198.213-.401.405-.62.618-.329.314-.664.643-.978 1.013-.512.547-1.116.805-1.907.805-.077 0-.158 0-.234-.005-1.507-.096-2.907-.684-3.957-1.185-2.87-1.388-5.392-3.358-7.487-5.855-1.73-2.082-2.886-4.007-3.652-6.074-.472-1.261-.645-2.244-.568-3.17a2.32 2.32 0 01.7-1.505l1.73-1.728c.248-.233.512-.36.77-.36.32 0 .579.193.741.355l.015.016c.31.288.604.587.913.906.158.162.32.324.482.492l1.385 1.382c.538.537.538 1.034 0 1.57-.147.148-.29.295-.436.436a26.33 26.33 0 01-1.273 1.236c-.01.01-.02.016-.026.026-.436.435-.355.86-.264 1.15l.016.045c.36.871.867 1.692 1.638 2.67l.005.005c1.4 1.722 2.877 3.064 4.505 4.092.208.132.42.239.624.34.182.091.355.177.502.268.02.01.04.026.06.036.173.086.336.126.503.126.421 0 .685-.263.771-.35l1.735-1.732c.172-.172.446-.38.766-.38.314 0 .573.198.73.37l.01.01 2.796 2.792c.522.516.522 1.048.005 1.585zM13.638 5.709a6.436 6.436 0 013.5 1.813 6.453 6.453 0 011.817 3.495.68.68 0 00.674.568c.04 0 .076-.005.117-.01a.685.685 0 00.563-.79 7.81 7.81 0 00-2.196-4.23 7.828 7.828 0 00-4.236-2.193.688.688 0 00-.792.557c-.066.37.178.73.553.79zm11.018 4.878a12.847 12.847 0 00-3.616-6.965A12.878 12.878 0 0014.065.01a.682.682 0 10-.224 1.348c2.364.4 4.52 1.52 6.235 3.226a11.47 11.47 0 013.231 6.226.68.68 0 00.675.567c.04 0 .076-.005.116-.01a.671.671 0 00.558-.78z" fill="#00B2FF"/></symbol><symbol id="icon-right-arrow"><path d="M1 8.5l4-4-4-4" stroke="#fff" stroke-linejoin="round"/></symbol><symbol id="icon-tag"><path d="M10.794 8.44a.633.633 0 00-.444-.184.633.633 0 00-.444.184.634.634 0 00-.184.444c0 .166.067.328.184.445a.633.633 0 00.444.184.633.633 0 00.629-.629.633.633 0 00-.184-.444z" fill="#00B2FF"/><path d="M32.611 2.614l-.777-.774.777-.773a.623.623 0 000-.884.631.631 0 00-.89 0l-.776.772-.765-.762a.63.63 0 00-.445-.184L19.098.004h-.002c-.84 0-1.63.325-2.224.916L11.564 6.2a.623.623 0 000 .883.631.631 0 00.889 0l5.308-5.28a1.88 1.88 0 011.335-.55h.001l10.377.007.583.58-2.332 2.319a2.59 2.59 0 00-3.144.386 2.537 2.537 0 00-.754 1.81 2.57 2.57 0 002.574 2.56c.66 0 1.32-.25 1.821-.749.85-.845.98-2.14.39-3.122l2.333-2.32.593.59-.006 10.307c0 .501-.197.972-.553 1.327L15.642 30.2a1.88 1.88 0 01-1.335.55 1.88 1.88 0 01-1.335-.55L2.425 19.711a1.86 1.86 0 01-.553-1.327c0-.502.197-.973.553-1.328L9.2 10.318a.623.623 0 000-.884.631.631 0 00-.889 0l-6.775 6.738a3.099 3.099 0 00-.92 2.212c0 .835.326 1.62.92 2.212l10.548 10.49a3.14 3.14 0 002.223.914c.806 0 1.61-.305 2.224-.915l15.337-15.253a3.1 3.1 0 00.921-2.21l.006-10.566a.623.623 0 00-.184-.442zm-5.278 4.668c-.249.247-.58.384-.931.384-.353 0-.683-.137-.932-.384a1.307 1.307 0 010-1.853 1.317 1.317 0 011.309-.33l-.726.722a.623.623 0 00.444 1.067c.161 0 .322-.06.445-.183l.723-.72c.13.446.02.947-.332 1.297z" fill="#00B2FF"/><path d="M27.463 13.202L20.14 5.877c-.97-.97-2.55-.97-3.52 0L5.03 17.469a2.473 2.473 0 00-.73 1.76c0 .665.26 1.29.73 1.76l7.324 7.326c.47.47 1.095.729 1.76.729.664 0 1.29-.259 1.76-.729l11.59-11.593c.47-.47.73-1.095.73-1.76s-.26-1.29-.73-1.76zm-.889 2.631l-11.59 11.593c-.233.233-.543.36-.871.36-.33 0-.639-.127-.871-.36L5.917 20.1a1.224 1.224 0 01-.36-.87c0-.33.127-.639.36-.872L17.508 6.766a1.229 1.229 0 011.741 0l7.325 7.325c.233.233.361.542.361.871 0 .33-.128.639-.36.871z" fill="#00B2FF"/><path d="M21.11 13.122a.629.629 0 00-.89-.89l-.361.363c-.966-.597-2.206-.517-2.99.267a2.281 2.281 0 00-.658 1.747c.031.647.31 1.265.784 1.74.505.505.562 1.272.126 1.708-.437.436-1.203.38-1.709-.126-.505-.506-.562-1.272-.126-1.709a.629.629 0 00-.888-.889c-.784.784-.864 2.024-.267 2.99l-.43.43a.629.629 0 10.89.89l.429-.43a2.6 2.6 0 001.362.393c.6 0 1.186-.219 1.628-.66.926-.926.87-2.49-.126-3.486a1.39 1.39 0 01-.418-.912 1.038 1.038 0 01.292-.797c.436-.437 1.202-.38 1.708.126s.562 1.272.126 1.708a.629.629 0 00.889.89c.784-.785.864-2.025.267-2.991l.362-.362zm-6.36 10.421l-3.229-3.229a.629.629 0 00-.889.89l3.229 3.228a.627.627 0 00.888 0 .629.629 0 000-.889zm-4.951-4.951a.632.632 0 00-.444-.184.634.634 0 00-.445.184.633.633 0 00.444 1.074.632.632 0 00.63-.629.633.633 0 00-.185-.445z" fill="#00B2FF"/></symbol><symbol id="icon-vk"><path d="M19.475 15.127c-1.109-1.024-1.188-1.024-.238-2.206 1.188-1.497 2.773-3.388 1.347-3.388H17.97c-.475 0-.554.316-.713.71-.633 1.496-1.9 3.466-2.376 3.15-.475-.314-.237-1.496-.237-3.387a.61.61 0 00-.159-.63c-.158-.158-.396-.315-.633-.315-.396-.079-.792-.158-1.188-.158-1.505 0-2.535.63-1.98.71 1.03.157.95 2.363.712 3.308-.396 1.655-1.98-1.26-2.693-2.757-.079-.394-.396-.63-.792-.63H5.852c-.317 0-.554.078-.554.315 0 .393 1.98 4.254 3.801 6.224 1.822 1.89 3.644 1.733 4.911 1.733a.607.607 0 00.396-.158.6.6 0 00.158-.394c0-1.26.476-1.89 1.347-1.024.95.945 1.188 1.576 2.376 1.576h2.138c.555 0 .713-.158.713-.394.08-.552-.871-1.576-1.663-2.285zM13.852.001c7.366.157 13.226 6.066 13.147 13.235-.079 7.17-6.178 12.842-13.543 12.763C6.01 25.92.07 20.17.07 13 .15 5.753 6.327-.077 13.852.002z" fill="#CDCDCD"/></symbol><symbol id="icon-watch"><path d="M3.846 12L2.34 10.484a2.12 2.12 0 010-2.984 2.093 2.093 0 012.968 0l1.608 1.617a14.654 14.654 0 015.593-2.378V4.642H11.11a.701.701 0 01-.7-.703V2.11c0-1.164.942-2.11 2.1-2.11h5.596c1.158 0 2.1.946 2.1 2.11v1.829a.701.701 0 01-.7.703h-1.4V6.74A14.652 14.652 0 0123.7 9.118L25.309 7.5a2.093 2.093 0 012.968 0 2.12 2.12 0 010 2.984l-1.507 1.514A14.804 14.804 0 0130 21.241c0 8.144-6.591 14.77-14.692 14.77-8.101 0-14.692-6.626-14.692-14.77a14.8 14.8 0 013.23-9.242zm.473-3.504a.698.698 0 00-.99 0 .707.707 0 000 .994l1.446 1.453a14.89 14.89 0 011.023-.96l-1.48-1.487zM18.806 2.11a.702.702 0 00-.7-.703H12.51c-.386 0-.7.315-.7.703v1.125h6.997V2.11zm-4.898 2.532v1.895a14.972 14.972 0 012.799 0V4.642h-2.799zm13.378 3.854a.698.698 0 00-.99 0l-1.478 1.487c.355.303.697.624 1.022.96l1.446-1.453a.707.707 0 000-.994zM15.308 34.604c7.33 0 13.293-5.994 13.293-13.363a13.389 13.389 0 00-5.252-10.643 13.245 13.245 0 00-6.046-2.572 13.444 13.444 0 00-3.99 0 13.246 13.246 0 00-6.047 2.572A13.388 13.388 0 002.014 21.24c0 7.37 5.964 13.364 13.294 13.364z" fill="#00B2FF"/><path d="M15.307 23.35a2.113 2.113 0 01-.7-4.1v-5.043c0-.388.314-.703.7-.703.387 0 .7.315.7.703v5.045a2.113 2.113 0 01-.7 4.099zm0-2.813a.703.703 0 000 1.407.702.702 0 000-1.407z" fill="#00B2FF"/><path d="M7.855 13.82l.034-.037a10.52 10.52 0 014.45-2.662.704.704 0 01.396 1.349 9.102 9.102 0 00-3.34 1.831l.471.474a.707.707 0 010 .995.695.695 0 01-.99 0l-.472-.475a9.083 9.083 0 00-2.165 5.242h.673c.387 0 .7.316.7.704a.701.701 0 01-.7.703H6.24a9.083 9.083 0 002.165 5.243l.473-.476a.698.698 0 01.99 0 .706.706 0 010 .995l-.474.476a8.988 8.988 0 005.215 2.176v-.677c0-.389.313-.704.7-.704.386 0 .7.315.7.704v.676a8.986 8.986 0 005.214-2.175l-.473-.476a.706.706 0 010-.995.698.698 0 01.99 0l.473.476a9.083 9.083 0 002.164-5.243h-.673a.701.701 0 01-.7-.703c0-.389.314-.704.7-.704h.673a9.083 9.083 0 00-2.164-5.242l-.473.475a.695.695 0 01-.99 0 .707.707 0 010-.995l.472-.474a9.099 9.099 0 00-3.341-1.832.704.704 0 01.396-1.349 10.517 10.517 0 014.409 2.624.698.698 0 01.042.038c.012.012.022.025.033.038a10.506 10.506 0 013.042 7.42c0 2.798-1.08 5.43-3.041 7.421l-.034.038-.038.034a10.394 10.394 0 01-7.381 3.058 10.394 10.394 0 01-7.381-3.058.402.402 0 01-.038-.034l-.034-.037a10.506 10.506 0 01-3.042-7.421c0-2.797 1.08-5.43 3.042-7.42z" fill="#00B2FF"/><path d="M15.308 12.097a.702.702 0 01-.7-.703c0-.388.313-.703.7-.703.386 0 .7.315.7.703a.702.702 0 01-.7.703z" fill="#00B2FF"/></symbol><symbol id="logo-desktop"><path d="M76.936 24.337c0-.724-.188-1.27-.562-1.636-.366-.374-1.038-.76-2.014-1.16-1.782-.675-3.064-1.464-3.845-2.368-.782-.911-1.172-1.985-1.172-3.222 0-1.498.529-2.698 1.587-3.601 1.066-.912 2.417-1.368 4.052-1.368 1.09 0 2.063.232 2.918.696a4.708 4.708 0 011.965 1.941c.464.838.696 1.79.696 2.857h-3.577c0-.83-.179-1.461-.537-1.892-.35-.44-.858-.66-1.526-.66-.626 0-1.115.188-1.465.562-.35.366-.524.862-.524 1.49 0 .487.195.93.586 1.33.39.39 1.082.797 2.075 1.22 1.733.627 2.99 1.396 3.772 2.308.79.911 1.184 2.07 1.184 3.479 0 1.546-.493 2.754-1.477 3.625-.985.87-2.324 1.306-4.016 1.306-1.148 0-2.194-.236-3.138-.708a5.35 5.35 0 01-2.221-2.026c-.53-.88-.794-1.917-.794-3.113h3.601c0 1.025.2 1.77.599 2.234.398.464 1.05.696 1.953.696 1.253 0 1.88-.664 1.88-1.99zm9.07-8.545l.097 1.22c.773-.976 1.794-1.464 3.064-1.464 1.318 0 2.25.594 2.795 1.782.757-1.188 1.835-1.782 3.235-1.782 2.311 0 3.495 1.599 3.552 4.797V29h-3.454v-8.435c0-.765-.106-1.31-.317-1.636-.212-.325-.57-.488-1.075-.488-.643 0-1.123.395-1.44 1.184l.024.415V29h-3.454v-8.41c0-.758-.102-1.303-.305-1.636-.204-.342-.566-.513-1.087-.513-.594 0-1.066.321-1.416.964V29h-3.454V15.792h3.234zM107.586 29c-.097-.203-.195-.545-.293-1.025-.618.846-1.456 1.27-2.514 1.27-1.107 0-2.027-.367-2.759-1.1-.724-.732-1.086-1.68-1.086-2.844 0-1.383.439-2.453 1.318-3.21.887-.757 2.161-1.144 3.821-1.16h1.05V19.87c0-.594-.102-1.013-.306-1.257-.203-.244-.5-.366-.891-.366-.862 0-1.294.504-1.294 1.513h-3.454c0-1.22.455-2.226 1.367-3.015.919-.797 2.079-1.196 3.479-1.196 1.448 0 2.567.378 3.357 1.135.797.749 1.196 1.823 1.196 3.223v6.213c.016 1.14.179 2.03.488 2.674V29h-3.479zm-2.038-2.466c.382 0 .708-.077.976-.232.269-.154.468-.337.599-.55v-2.746h-.831c-.585 0-1.049.188-1.391.562-.334.374-.501.875-.501 1.501 0 .977.383 1.465 1.148 1.465zm14.05-7.41l-1.147-.097c-.944 0-1.583.415-1.917 1.245V29h-3.467V15.792h3.26l.097 1.428c.546-1.115 1.298-1.672 2.259-1.672.39 0 .708.053.952.159l-.037 3.418zm6.409-6.58v3.248h1.77v2.6h-1.77v6.555c0 .521.069.88.207 1.075.147.195.424.293.83.293.334 0 .607-.029.818-.086l-.024 2.686c-.586.22-1.221.33-1.904.33-2.23 0-3.357-1.279-3.382-3.834v-7.019h-1.526v-2.6h1.526v-3.247h3.455zM135.615 29V11.227h4.699c2.076 0 3.728.659 4.957 1.977 1.236 1.319 1.867 3.125 1.892 5.42v2.88c0 2.336-.619 4.172-1.856 5.506-1.229 1.327-2.925 1.99-5.09 1.99h-4.602zm3.589-14.783v11.804h1.074c1.196 0 2.038-.313 2.527-.94.488-.634.744-1.725.769-3.27v-3.09c0-1.66-.232-2.815-.696-3.466-.464-.66-1.253-1.005-2.368-1.038h-1.306zm15.71 15.027c-1.774 0-3.157-.529-4.15-1.587-.993-1.058-1.49-2.571-1.49-4.54v-1.05c0-2.084.456-3.691 1.368-4.822.911-1.132 2.217-1.697 3.918-1.697 1.66 0 2.909.533 3.748 1.599.838 1.058 1.265 2.629 1.281 4.712v1.697h-6.872c.049.976.264 1.692.647 2.148.382.448.972.671 1.77.671 1.155 0 2.12-.394 2.893-1.184l1.355 2.088c-.423.586-1.038 1.062-1.843 1.428a6.392 6.392 0 01-2.625.537zm-2.173-8.105h3.455v-.318c-.016-.79-.147-1.387-.391-1.794-.244-.407-.667-.61-1.269-.61-.603 0-1.042.215-1.319.646-.268.432-.427 1.123-.476 2.076zm12.964 2.978l1.672-8.325h3.602L167.353 29h-3.296l-3.638-13.208h3.614l1.672 8.325zM176.228 29h-3.467V15.792h3.467V29zm-3.626-16.626c0-.537.171-.976.513-1.318.342-.342.797-.513 1.367-.513s1.025.17 1.367.513c.342.342.513.78.513 1.318 0 .529-.171.968-.513 1.318-.334.35-.789.525-1.367.525s-1.038-.175-1.379-.525c-.334-.35-.501-.789-.501-1.318zm11.072 14.001c1.001 0 1.509-.65 1.526-1.953h3.247c-.016 1.44-.46 2.604-1.331 3.492-.871.887-1.994 1.33-3.369 1.33-1.701 0-2.999-.529-3.894-1.587-.895-1.058-1.351-2.616-1.367-4.675v-1.05c0-2.075.439-3.658 1.318-4.748.887-1.09 2.193-1.636 3.919-1.636 1.456 0 2.604.451 3.442 1.355.838.895 1.266 2.169 1.282 3.82H185.2c-.008-.74-.131-1.31-.367-1.708-.236-.4-.626-.599-1.171-.599-.603 0-1.034.216-1.294.648-.261.423-.399 1.249-.415 2.477v1.343c0 1.075.053 1.827.158 2.259.106.423.281.736.525.94.244.195.59.293 1.038.293zm12.06 2.87c-1.774 0-3.157-.53-4.15-1.588-.993-1.058-1.489-2.571-1.489-4.54v-1.05c0-2.084.455-3.691 1.367-4.822.911-1.132 2.218-1.697 3.918-1.697 1.661 0 2.91.533 3.748 1.599.838 1.058 1.265 2.629 1.282 4.712v1.697h-6.873c.049.976.265 1.692.647 2.148.383.448.973.671 1.77.671 1.156 0 2.12-.394 2.893-1.184l1.355 2.088c-.423.586-1.037 1.062-1.843 1.428a6.392 6.392 0 01-2.625.537zm-2.172-8.106h3.454v-.318c-.016-.79-.146-1.387-.391-1.794-.244-.407-.667-.61-1.269-.61-.602 0-1.042.215-1.318.646-.269.432-.428 1.123-.476 2.076z" fill="#fff"/><path d="M70.947 44.96l1.29-4.3h1.517l-2.52 7.3c-.386 1.067-1.043 1.6-1.968 1.6a2.55 2.55 0 01-.686-.105v-1.102l.27.018c.359 0 .629-.066.808-.2.184-.128.328-.347.434-.655l.205-.545-2.227-6.31h1.536l1.341 4.3zm7.395.288l1.875-4.588h1.781V47h-1.424v-4.195L78.828 47h-.967l-1.752-4.219V47h-1.423v-6.34h1.792l1.864 4.588zM88.97 47h-1.424v-2.56H85.08V47h-1.424v-6.34h1.424v2.643h2.467V40.66h1.424V47zm3.052-4.324h1.395c.52 0 .973.09 1.36.27.386.179.679.431.878.755.203.324.305.701.305 1.131 0 .652-.23 1.176-.692 1.57-.46.395-1.074.594-1.84.598H90.6v-6.34h1.424v2.016zM98.44 47h-1.423v-6.34h1.423V47zm-6.416-3.182v2.045h1.39c.347 0 .62-.086.82-.258.203-.175.304-.423.304-.744 0-.32-.1-.572-.299-.755-.195-.188-.46-.284-.797-.288h-1.418zm10.916 3.3c-.902 0-1.634-.284-2.197-.85-.558-.57-.838-1.328-.838-2.274v-.176c0-.633.121-1.197.364-1.693.246-.5.589-.889 1.031-1.166a2.715 2.715 0 011.476-.416c.864 0 1.53.275 1.998.826.473.55.709 1.33.709 2.338v.574h-4.142c.043.524.217.938.521 1.242.309.305.696.457 1.16.457.653 0 1.184-.263 1.594-.79l.768.732a2.58 2.58 0 01-1.02.885c-.422.207-.896.31-1.424.31zm-.169-5.433c-.391 0-.708.137-.95.41-.238.274-.39.655-.457 1.143h2.713v-.105c-.031-.477-.158-.836-.381-1.078-.222-.246-.531-.37-.925-.37zm11.8.106h-2.056V47h-1.424v-5.209h-2.033v-1.13h5.513v1.13zm3.369 5.326c-.902 0-1.634-.283-2.197-.85-.558-.57-.838-1.328-.838-2.273v-.176c0-.633.121-1.197.364-1.693.246-.5.589-.889 1.031-1.166a2.715 2.715 0 011.476-.416c.864 0 1.53.275 1.998.826.473.55.709 1.33.709 2.338v.574h-4.142c.043.524.217.938.521 1.242.309.305.696.457 1.16.457.653 0 1.184-.263 1.594-.79l.768.732a2.58 2.58 0 01-1.02.885c-.422.207-.896.31-1.424.31zm-.169-5.431c-.391 0-.708.136-.95.41-.238.273-.39.654-.457 1.142h2.713v-.105c-.031-.477-.158-.836-.381-1.078-.222-.246-.531-.37-.925-.37zm6.099 1.06l1.207-2.086h1.582l-1.939 3.123L126.723 47h-1.571l-1.265-2.168-1.26 2.168h-1.582l2.004-3.217-1.934-3.123h1.571l1.183 2.086zM132.998 47h-1.424v-2.56h-2.467V47h-1.423v-6.34h1.423v2.643h2.467V40.66h1.424V47zm1.254-3.228c0-.622.123-1.18.369-1.676.246-.5.592-.883 1.037-1.149.446-.27.957-.404 1.535-.404.856 0 1.549.275 2.08.826.536.55.825 1.281.868 2.191l.005.334c0 .626-.121 1.184-.363 1.676a2.638 2.638 0 01-1.031 1.143c-.445.27-.961.404-1.547.404-.894 0-1.611-.297-2.15-.89-.535-.598-.803-1.393-.803-2.385v-.07zm1.424.123c0 .652.135 1.164.404 1.535.27.367.645.55 1.125.55.481 0 .854-.187 1.119-.562.27-.375.405-.924.405-1.646 0-.641-.139-1.149-.417-1.524a1.31 1.31 0 00-1.119-.563c-.464 0-.834.186-1.107.557-.274.367-.41.918-.41 1.653zm10.969-3.235V47h-1.424v-5.191h-1.793l-.117 2.209c-.075 1.062-.28 1.826-.616 2.29-.332.462-.841.692-1.529.692h-.439l-.006-1.184.293-.029c.312-.043.539-.232.679-.568.145-.34.237-.957.276-1.852l.117-2.707h4.559zm1.248 3.112c0-.622.123-1.18.369-1.676.246-.5.592-.883 1.037-1.149.445-.27.957-.404 1.535-.404.855 0 1.549.275 2.08.826.535.55.824 1.281.867 2.191l.006.334c0 .626-.121 1.184-.363 1.676a2.638 2.638 0 01-1.031 1.143c-.446.27-.961.404-1.547.404-.895 0-1.612-.297-2.151-.89-.535-.598-.802-1.393-.802-2.385v-.07zm1.423.123c0 .652.135 1.164.405 1.535.269.367.644.55 1.125.55.48 0 .853-.187 1.119-.562.269-.375.404-.924.404-1.646 0-.641-.139-1.149-.416-1.524a1.31 1.31 0 00-1.119-.563c-.465 0-.834.186-1.107.557-.274.367-.411.918-.411 1.653zm9.897-2.086h-2.754V47h-1.418v-6.34h4.172v1.149zm4.764-1.149h1.418V47h-1.418v-4.23L161.492 47h-1.418v-6.34h1.418v4.23l2.485-4.23zm6.89 0h1.418V47h-1.418v-4.23L168.383 47h-1.418v-6.34h1.418v4.23l2.484-4.23z" fill="#788891"/><path d="M32.066 13.867c1.129 0 2.082.727 2.441 1.733h8.986a2.596 2.596 0 012.44-1.733c1.434 0 2.6 1.166 2.6 2.6 0 1.433-1.166 2.6-2.6 2.6a2.597 2.597 0 01-2.44-1.734h-8.987a2.597 2.597 0 01-2.44 1.733 2.603 2.603 0 01-2.6-2.6c0-1.433 1.167-2.6 2.6-2.6zm13.867 3.466a.868.868 0 000-1.733.868.868 0 000 1.733zm-13.867 0a.868.868 0 000-1.733.867.867 0 000 1.733z" fill="#00B2FF"/><path d="M25.133 19.226v-5.36c0-.23.091-.45.254-.612l3.467-3.467a.864.864 0 01.613-.254h2.76a2.596 2.596 0 012.44-1.733c1.433 0 2.6 1.166 2.6 2.6 0 1.433-1.167 2.6-2.6 2.6a2.596 2.596 0 01-2.44-1.733h-2.402l-2.958 2.958v5a2.596 2.596 0 011.733 2.441c0 1.434-1.167 2.6-2.6 2.6a2.603 2.603 0 01-2.6-2.6c0-1.128.727-2.081 1.733-2.44zm9.534-7.96a.868.868 0 10-.002-1.735.868.868 0 00.002 1.736zM26 22.534a.867.867 0 10-.002-1.735.867.867 0 00.002 1.735zm-16.467-.001c.4 0 .775.098 1.114.26l1.486-1.485V13c0-.23.091-.45.254-.613l8.674-8.673A2.556 2.556 0 0120.8 2.6c0-1.433 1.166-2.6 2.6-2.6C24.834 0 26 1.167 26 2.6s-1.166 2.6-2.6 2.6c-.4 0-.775-.098-1.114-.261l-8.42 8.42v8.307c0 .23-.09.451-.253.613l-1.74 1.74c.162.34.26.714.26 1.114 0 1.433-1.166 2.6-2.6 2.6a2.603 2.603 0 01-2.6-2.6c0-1.433 1.167-2.6 2.6-2.6zM23.4 3.467a.868.868 0 000-1.734.868.868 0 000 1.734zM9.533 26a.868.868 0 10-.001-1.735A.868.868 0 009.533 26zM1.734 12.293V8.667c0-.231.09-.451.253-.613l6.067-6.067a.864.864 0 01.613-.254h4.493A2.596 2.596 0 0115.6 0c1.434 0 2.6 1.167 2.6 2.6s-1.166 2.6-2.6 2.6a2.596 2.596 0 01-2.44-1.733H9.026l-5.56 5.558v3.268a2.596 2.596 0 011.734 2.44c0 1.433-1.166 2.6-2.6 2.6a2.603 2.603 0 01-2.6-2.6c0-1.128.727-2.082 1.734-2.44zM15.6 3.467a.868.868 0 000-1.734.868.868 0 000 1.734zM2.6 15.6a.867.867 0 10-.001-1.735A.867.867 0 002.6 15.6zm11.266 31.36V34.507a2.597 2.597 0 01-1.732-2.44c0-1.434 1.166-2.6 2.6-2.6 1.128 0 2.081.726 2.44 1.733h8.986a2.596 2.596 0 012.44-1.734c1.129 0 2.082.727 2.44 1.733h5.001l3.22-3.22a2.556 2.556 0 01-.26-1.113c0-1.433 1.166-2.6 2.6-2.6 1.433 0 2.6 1.167 2.6 2.6 0 1.434-1.167 2.6-2.6 2.6-.401 0-.776-.098-1.114-.26l-3.474 3.473a.864.864 0 01-.613.254h-5.36a2.597 2.597 0 01-2.44 1.733 2.597 2.597 0 01-2.44-1.733h-8.987a2.597 2.597 0 01-1.574 1.574V46.96a2.596 2.596 0 011.734 2.44c0 1.434-1.167 2.6-2.6 2.6a2.603 2.603 0 01-2.6-2.6c0-1.128.727-2.082 1.733-2.44zM41.6 27.732a.868.868 0 10-.001-1.735.868.868 0 00.001 1.735zm-13 5.2a.868.868 0 000-1.733.868.868 0 000 1.733zM14.733 50.266a.868.868 0 000-1.733.868.868 0 000 1.733zm0-17.333a.868.868 0 000-1.733.867.867 0 000 1.733z" fill="#00B2FF"/><path d="M18.2 17.492v-2.759c0-.23.091-.45.254-.613L28.861 3.714a2.558 2.558 0 01-.26-1.114c0-1.433 1.166-2.6 2.6-2.6 1.128 0 2.081.727 2.44 1.733h3.626c.478 0 .867.388.867.867v2.241l3.22 3.22a2.549 2.549 0 011.113-.261c1.433 0 2.6 1.166 2.6 2.6 0 1.433-1.167 2.6-2.6 2.6a2.603 2.603 0 01-2.6-2.6c0-.4.098-.775.26-1.114l-3.473-3.473A.863.863 0 0136.4 5.2V3.467h-2.76A2.597 2.597 0 0131.2 5.2c-.4 0-.775-.098-1.113-.261L19.934 15.092v2.4a2.596 2.596 0 011.733 2.441c0 1.433-1.167 2.6-2.6 2.6a2.603 2.603 0 01-2.6-2.6c0-1.128.727-2.082 1.733-2.44zm24.267-6.226a.868.868 0 000-1.733.868.868 0 000 1.734zM31.2 3.467a.868.868 0 10-.001-1.734.868.868 0 00.001 1.735zM19.067 20.8a.868.868 0 000-1.734.868.868 0 000 1.734z" fill="#00B2FF"/><path d="M20.8 24.266c1.128 0 2.082.727 2.44 1.734h10.201l4.946-4.946A.864.864 0 0139 20.8h9.175l2.092-2.092v-7.083L43.58 4.94c-.338.163-.713.26-1.113.26a2.603 2.603 0 01-2.6-2.599c0-1.433 1.166-2.6 2.6-2.6 1.433 0 2.6 1.167 2.6 2.6 0 .4-.098.775-.261 1.114l6.94 6.94a.863.863 0 01.254.613v7.8c0 .23-.091.45-.254.612l-2.6 2.6a.864.864 0 01-.613.254H39.36l-4.946 4.946a.864.864 0 01-.613.254H23.24a2.596 2.596 0 01-2.44 1.733 2.603 2.603 0 01-2.6-2.6c0-1.433 1.166-2.6 2.6-2.6zM42.467 1.733a.868.868 0 10.001 1.735.868.868 0 00-.001-1.735zm-21.667 26a.868.868 0 000-1.733.868.868 0 000 1.733zM2.6 20.8c.4 0 .775.098 1.114.26l3.22-3.219v-5A2.596 2.596 0 015.2 10.4c0-1.434 1.167-2.6 2.6-2.6s2.6 1.166 2.6 2.6a2.596 2.596 0 01-1.733 2.44v5.36c0 .23-.091.45-.254.613l-3.474 3.473c.163.339.261.713.261 1.114a2.597 2.597 0 01-1.733 2.44v.668l6.679 6.679a.863.863 0 01.254.613v1.026a2.596 2.596 0 011.733 2.44 2.596 2.596 0 01-1.733 2.44v2.054a2.596 2.596 0 011.733 2.44c0 1.434-1.166 2.6-2.6 2.6a2.603 2.603 0 01-2.6-2.6c0-1.128.727-2.082 1.734-2.44v-2.053a2.596 2.596 0 01-1.734-2.44c0-1.13.727-2.083 1.734-2.441v-.668l-6.68-6.679a.863.863 0 01-.254-.613V25.84A2.597 2.597 0 010 23.4c0-1.434 1.167-2.6 2.6-2.6zm5.2-9.534a.867.867 0 10-.002-1.734.867.867 0 00.002 1.735zm1.733 33.8a.868.868 0 000-1.733.867.867 0 000 1.733zm0-6.933a.868.868 0 000-1.733.867.867 0 000 1.733zM2.6 24.266a.867.867 0 10-.002-1.735.867.867 0 00.002 1.735z" fill="#00B2FF"/></symbol><symbol id="logo-footer" viewBox="0 0 216 52">
<path d="M76.9355 24.3369C76.9355 23.6126 76.7484 23.0674 76.374 22.7012C76.0078 22.3268 75.3364 21.9403 74.3599 21.5415C72.5776 20.866 71.2959 20.0767 70.5146 19.1733C69.7334 18.2619 69.3428 17.1877 69.3428 15.9507C69.3428 14.4533 69.8717 13.2529 70.9297 12.3496C71.9958 11.4382 73.3467 10.9824 74.9824 10.9824C76.0729 10.9824 77.0454 11.2144 77.8999 11.6782C78.7544 12.134 79.4095 12.7809 79.8652 13.6191C80.3291 14.4574 80.561 15.4095 80.561 16.4756H76.9844C76.9844 15.6455 76.8053 15.0148 76.4473 14.5835C76.0973 14.144 75.5887 13.9243 74.9214 13.9243C74.2948 13.9243 73.8065 14.1115 73.4565 14.4858C73.1066 14.8521 72.9316 15.3485 72.9316 15.9751C72.9316 16.4634 73.127 16.9069 73.5176 17.3057C73.9082 17.6963 74.5999 18.1032 75.5928 18.5264C77.3262 19.153 78.5835 19.922 79.3647 20.8335C80.1541 21.745 80.5488 22.9046 80.5488 24.3125C80.5488 25.8587 80.0565 27.0672 79.0718 27.938C78.0871 28.8088 76.7484 29.2441 75.0557 29.2441C73.9082 29.2441 72.8625 29.0081 71.9185 28.5361C70.9744 28.0641 70.2339 27.3887 69.6968 26.5098C69.1678 25.6309 68.9033 24.5933 68.9033 23.397H72.5044C72.5044 24.4224 72.7038 25.167 73.1025 25.6309C73.5013 26.0947 74.1523 26.3267 75.0557 26.3267C76.3089 26.3267 76.9355 25.6634 76.9355 24.3369ZM88.0928 29.2441C86.3187 29.2441 84.9352 28.7152 83.9424 27.6572C82.9495 26.5993 82.4531 25.0856 82.4531 23.1162V22.0664C82.4531 19.9831 82.9089 18.3758 83.8203 17.2446C84.7318 16.1134 86.0379 15.5479 87.7388 15.5479C89.3989 15.5479 90.6481 16.0809 91.4863 17.147C92.3245 18.2049 92.7518 19.7756 92.7681 21.8589V23.5557H85.8955C85.9443 24.5322 86.16 25.2484 86.5425 25.7041C86.925 26.1517 87.515 26.3755 88.3125 26.3755C89.4681 26.3755 90.4325 25.9808 91.2056 25.1914L92.5605 27.2788C92.1374 27.8647 91.5229 28.3408 90.7173 28.707C89.9116 29.0651 89.0368 29.2441 88.0928 29.2441ZM85.9199 21.1387H89.3745V20.8213C89.3582 20.0319 89.228 19.4338 88.9839 19.0269C88.7397 18.62 88.3166 18.4165 87.7144 18.4165C87.1121 18.4165 86.6727 18.6322 86.396 19.0635C86.1274 19.4948 85.9688 20.1865 85.9199 21.1387ZM101.24 19.1245L100.092 19.0269C99.1483 19.0269 98.5094 19.4419 98.1758 20.272V29H94.709V15.792H97.9683L98.0659 17.2202C98.6112 16.1053 99.3639 15.5479 100.324 15.5479C100.715 15.5479 101.032 15.6007 101.276 15.7065L101.24 19.1245ZM107.575 24.1172L109.248 15.792H112.849L109.223 29H105.927L102.29 15.792H105.903L107.575 24.1172ZM118.098 29H114.631V15.792H118.098V29ZM114.472 12.374C114.472 11.8369 114.643 11.3975 114.985 11.0557C115.327 10.7139 115.782 10.543 116.352 10.543C116.922 10.543 117.377 10.7139 117.719 11.0557C118.061 11.3975 118.232 11.8369 118.232 12.374C118.232 12.903 118.061 13.3424 117.719 13.6924C117.386 14.0423 116.93 14.2173 116.352 14.2173C115.774 14.2173 115.314 14.0423 114.973 13.6924C114.639 13.3424 114.472 12.903 114.472 12.374ZM125.544 26.3755C126.545 26.3755 127.054 25.7244 127.07 24.4224H130.317C130.301 25.8628 129.857 27.0265 128.986 27.9136C128.116 28.8006 126.993 29.2441 125.617 29.2441C123.916 29.2441 122.618 28.7152 121.723 27.6572C120.828 26.5993 120.372 25.0409 120.356 22.9819V21.9321C120.356 19.8569 120.795 18.2741 121.674 17.1836C122.561 16.0931 123.868 15.5479 125.593 15.5479C127.049 15.5479 128.197 15.9995 129.035 16.9028C129.873 17.798 130.301 19.0716 130.317 20.7236H127.07C127.062 19.9831 126.94 19.4134 126.704 19.0146C126.468 18.6159 126.077 18.4165 125.532 18.4165C124.93 18.4165 124.498 18.6322 124.238 19.0635C123.977 19.4867 123.839 20.3127 123.823 21.5415V22.8843C123.823 23.9585 123.876 24.7113 123.981 25.1426C124.087 25.5658 124.262 25.8791 124.506 26.0825C124.75 26.2778 125.096 26.3755 125.544 26.3755ZM137.604 29.2441C135.83 29.2441 134.447 28.7152 133.454 27.6572C132.461 26.5993 131.965 25.0856 131.965 23.1162V22.0664C131.965 19.9831 132.421 18.3758 133.332 17.2446C134.243 16.1134 135.55 15.5479 137.25 15.5479C138.911 15.5479 140.16 16.0809 140.998 17.147C141.836 18.2049 142.264 19.7756 142.28 21.8589V23.5557H135.407C135.456 24.5322 135.672 25.2484 136.054 25.7041C136.437 26.1517 137.027 26.3755 137.824 26.3755C138.98 26.3755 139.944 25.9808 140.717 25.1914L142.072 27.2788C141.649 27.8647 141.035 28.3408 140.229 28.707C139.423 29.0651 138.549 29.2441 137.604 29.2441ZM135.432 21.1387H138.886V20.8213C138.87 20.0319 138.74 19.4338 138.496 19.0269C138.251 18.62 137.828 18.4165 137.226 18.4165C136.624 18.4165 136.184 18.6322 135.908 19.0635C135.639 19.4948 135.48 20.1865 135.432 21.1387ZM150.166 29V11.2266H154.865C156.94 11.2266 158.592 11.8857 159.821 13.2041C161.058 14.5225 161.689 16.3291 161.713 18.624V21.5049C161.713 23.8405 161.095 25.6756 159.858 27.0103C158.629 28.3368 156.932 29 154.768 29H150.166ZM153.754 14.2173V26.0215H154.829C156.025 26.0215 156.867 25.7082 157.355 25.0815C157.844 24.4468 158.1 23.3563 158.125 21.8101V18.7217C158.125 17.0615 157.893 15.9059 157.429 15.2549C156.965 14.5957 156.175 14.2498 155.061 14.2173H153.754ZM169.465 29.2441C167.691 29.2441 166.307 28.7152 165.314 27.6572C164.322 26.5993 163.825 25.0856 163.825 23.1162V22.0664C163.825 19.9831 164.281 18.3758 165.192 17.2446C166.104 16.1134 167.41 15.5479 169.111 15.5479C170.771 15.5479 172.02 16.0809 172.858 17.147C173.697 18.2049 174.124 19.7756 174.14 21.8589V23.5557H167.268C167.316 24.5322 167.532 25.2484 167.915 25.7041C168.297 26.1517 168.887 26.3755 169.685 26.3755C170.84 26.3755 171.805 25.9808 172.578 25.1914L173.933 27.2788C173.509 27.8647 172.895 28.3408 172.089 28.707C171.284 29.0651 170.409 29.2441 169.465 29.2441ZM167.292 21.1387H170.747V20.8213C170.73 20.0319 170.6 19.4338 170.356 19.0269C170.112 18.62 169.689 18.4165 169.086 18.4165C168.484 18.4165 168.045 18.6322 167.768 19.0635C167.5 19.4948 167.341 20.1865 167.292 21.1387ZM180.256 24.1172L181.928 15.792H185.529L181.904 29H178.608L174.97 15.792H178.583L180.256 24.1172ZM190.778 29H187.312V15.792H190.778V29ZM187.153 12.374C187.153 11.8369 187.324 11.3975 187.666 11.0557C188.007 10.7139 188.463 10.543 189.033 10.543C189.602 10.543 190.058 10.7139 190.4 11.0557C190.742 11.3975 190.913 11.8369 190.913 12.374C190.913 12.903 190.742 13.3424 190.4 13.6924C190.066 14.0423 189.611 14.2173 189.033 14.2173C188.455 14.2173 187.995 14.0423 187.653 13.6924C187.32 13.3424 187.153 12.903 187.153 12.374ZM198.225 26.3755C199.226 26.3755 199.734 25.7244 199.75 24.4224H202.998C202.981 25.8628 202.538 27.0265 201.667 27.9136C200.796 28.8006 199.673 29.2441 198.298 29.2441C196.597 29.2441 195.299 28.7152 194.404 27.6572C193.509 26.5993 193.053 25.0409 193.037 22.9819V21.9321C193.037 19.8569 193.476 18.2741 194.355 17.1836C195.242 16.0931 196.548 15.5479 198.273 15.5479C199.73 15.5479 200.878 15.9995 201.716 16.9028C202.554 17.798 202.981 19.0716 202.998 20.7236H199.75C199.742 19.9831 199.62 19.4134 199.384 19.0146C199.148 18.6159 198.758 18.4165 198.212 18.4165C197.61 18.4165 197.179 18.6322 196.918 19.0635C196.658 19.4867 196.52 20.3127 196.503 21.5415V22.8843C196.503 23.9585 196.556 24.7113 196.662 25.1426C196.768 25.5658 196.943 25.8791 197.187 26.0825C197.431 26.2778 197.777 26.3755 198.225 26.3755ZM210.285 29.2441C208.511 29.2441 207.128 28.7152 206.135 27.6572C205.142 26.5993 204.646 25.0856 204.646 23.1162V22.0664C204.646 19.9831 205.101 18.3758 206.013 17.2446C206.924 16.1134 208.23 15.5479 209.931 15.5479C211.591 15.5479 212.84 16.0809 213.679 17.147C214.517 18.2049 214.944 19.7756 214.96 21.8589V23.5557H208.088C208.137 24.5322 208.352 25.2484 208.735 25.7041C209.117 26.1517 209.707 26.3755 210.505 26.3755C211.66 26.3755 212.625 25.9808 213.398 25.1914L214.753 27.2788C214.33 27.8647 213.715 28.3408 212.91 28.707C212.104 29.0651 211.229 29.2441 210.285 29.2441ZM208.112 21.1387H211.567V20.8213C211.551 20.0319 211.42 19.4338 211.176 19.0269C210.932 18.62 210.509 18.4165 209.907 18.4165C209.305 18.4165 208.865 18.6322 208.588 19.0635C208.32 19.4948 208.161 20.1865 208.112 21.1387Z" fill="#203C42"/>
<path d="M70.9473 44.9609L72.2363 40.6602H73.7539L71.2344 47.9609C70.8477 49.0273 70.1914 49.5605 69.2656 49.5605C69.0586 49.5605 68.8301 49.5254 68.5801 49.4551V48.3535L68.8496 48.3711C69.209 48.3711 69.4785 48.3047 69.6582 48.1719C69.8418 48.043 69.9863 47.8242 70.0918 47.5156L70.2969 46.9707L68.0703 40.6602H69.6055L70.9473 44.9609ZM78.3418 45.248L80.2168 40.6602H81.998V47H80.5742V42.8047L78.8281 47H77.8613L76.1094 42.7812V47H74.6855V40.6602H76.4785L78.3418 45.248ZM88.9707 47H87.5469V44.4395H85.0801V47H83.6562V40.6602H85.0801V43.3027H87.5469V40.6602H88.9707V47ZM92.0234 42.6758H93.418C93.9375 42.6758 94.3906 42.7656 94.7773 42.9453C95.1641 43.125 95.457 43.377 95.6562 43.7012C95.8594 44.0254 95.9609 44.4023 95.9609 44.832C95.9609 45.4844 95.7305 46.0078 95.2695 46.4023C94.8086 46.7969 94.1953 46.9961 93.4297 47H90.5996V40.6602H92.0234V42.6758ZM98.4395 47H97.0156V40.6602H98.4395V47ZM92.0234 43.8184V45.8633H93.4121C93.7598 45.8633 94.0332 45.7773 94.2324 45.6055C94.4355 45.4297 94.5371 45.1816 94.5371 44.8613C94.5371 44.541 94.4375 44.2891 94.2383 44.1055C94.043 43.918 93.7773 43.8223 93.4414 43.8184H92.0234ZM102.939 47.1172C102.037 47.1172 101.305 46.834 100.742 46.2676C100.184 45.6973 99.9043 44.9395 99.9043 43.9941V43.8184C99.9043 43.1855 100.025 42.6211 100.268 42.125C100.514 41.625 100.857 41.2363 101.299 40.959C101.74 40.6816 102.232 40.543 102.775 40.543C103.639 40.543 104.305 40.8184 104.773 41.3691C105.246 41.9199 105.482 42.6992 105.482 43.707V44.2812H101.34C101.383 44.8047 101.557 45.2188 101.861 45.5234C102.17 45.8281 102.557 45.9805 103.021 45.9805C103.674 45.9805 104.205 45.7168 104.615 45.1895L105.383 45.9219C105.129 46.3008 104.789 46.5957 104.363 46.8066C103.941 47.0137 103.467 47.1172 102.939 47.1172ZM102.77 41.6855C102.379 41.6855 102.062 41.8223 101.82 42.0957C101.582 42.3691 101.43 42.75 101.363 43.2383H104.076V43.1328C104.045 42.6562 103.918 42.2969 103.695 42.0547C103.473 41.8086 103.164 41.6855 102.77 41.6855ZM114.57 41.791H112.514V47H111.09V41.791H109.057V40.6602H114.57V41.791ZM117.939 47.1172C117.037 47.1172 116.305 46.834 115.742 46.2676C115.184 45.6973 114.904 44.9395 114.904 43.9941V43.8184C114.904 43.1855 115.025 42.6211 115.268 42.125C115.514 41.625 115.857 41.2363 116.299 40.959C116.74 40.6816 117.232 40.543 117.775 40.543C118.639 40.543 119.305 40.8184 119.773 41.3691C120.246 41.9199 120.482 42.6992 120.482 43.707V44.2812H116.34C116.383 44.8047 116.557 45.2188 116.861 45.5234C117.17 45.8281 117.557 45.9805 118.021 45.9805C118.674 45.9805 119.205 45.7168 119.615 45.1895L120.383 45.9219C120.129 46.3008 119.789 46.5957 119.363 46.8066C118.941 47.0137 118.467 47.1172 117.939 47.1172ZM117.77 41.6855C117.379 41.6855 117.062 41.8223 116.82 42.0957C116.582 42.3691 116.43 42.75 116.363 43.2383H119.076V43.1328C119.045 42.6562 118.918 42.2969 118.695 42.0547C118.473 41.8086 118.164 41.6855 117.77 41.6855ZM123.869 42.7461L125.076 40.6602H126.658L124.719 43.7832L126.723 47H125.152L123.887 44.832L122.627 47H121.045L123.049 43.7832L121.115 40.6602H122.686L123.869 42.7461ZM132.998 47H131.574V44.4395H129.107V47H127.684V40.6602H129.107V43.3027H131.574V40.6602H132.998V47ZM134.252 43.7715C134.252 43.1504 134.375 42.5918 134.621 42.0957C134.867 41.5957 135.213 41.2129 135.658 40.9473C136.104 40.6777 136.615 40.543 137.193 40.543C138.049 40.543 138.742 40.8184 139.273 41.3691C139.809 41.9199 140.098 42.6504 140.141 43.5605L140.146 43.8945C140.146 44.5195 140.025 45.0781 139.783 45.5703C139.545 46.0625 139.201 46.4434 138.752 46.7129C138.307 46.9824 137.791 47.1172 137.205 47.1172C136.311 47.1172 135.594 46.8203 135.055 46.2266C134.52 45.6289 134.252 44.834 134.252 43.8418V43.7715ZM135.676 43.8945C135.676 44.5469 135.811 45.0586 136.08 45.4297C136.35 45.7969 136.725 45.9805 137.205 45.9805C137.686 45.9805 138.059 45.793 138.324 45.418C138.594 45.043 138.729 44.4941 138.729 43.7715C138.729 43.1309 138.59 42.623 138.312 42.248C138.039 41.873 137.666 41.6855 137.193 41.6855C136.729 41.6855 136.359 41.8711 136.086 42.2422C135.812 42.6094 135.676 43.1602 135.676 43.8945ZM146.645 40.6602V47H145.221V41.8086H143.428L143.311 44.0176C143.236 45.0801 143.031 45.8438 142.695 46.3086C142.363 46.7695 141.854 47 141.166 47H140.727L140.721 45.8164L141.014 45.7871C141.326 45.7441 141.553 45.5547 141.693 45.2188C141.838 44.8789 141.93 44.2617 141.969 43.3672L142.086 40.6602H146.645ZM147.893 43.7715C147.893 43.1504 148.016 42.5918 148.262 42.0957C148.508 41.5957 148.854 41.2129 149.299 40.9473C149.744 40.6777 150.256 40.543 150.834 40.543C151.689 40.543 152.383 40.8184 152.914 41.3691C153.449 41.9199 153.738 42.6504 153.781 43.5605L153.787 43.8945C153.787 44.5195 153.666 45.0781 153.424 45.5703C153.186 46.0625 152.842 46.4434 152.393 46.7129C151.947 46.9824 151.432 47.1172 150.846 47.1172C149.951 47.1172 149.234 46.8203 148.695 46.2266C148.16 45.6289 147.893 44.834 147.893 43.8418V43.7715ZM149.316 43.8945C149.316 44.5469 149.451 45.0586 149.721 45.4297C149.99 45.7969 150.365 45.9805 150.846 45.9805C151.326 45.9805 151.699 45.793 151.965 45.418C152.234 45.043 152.369 44.4941 152.369 43.7715C152.369 43.1309 152.23 42.623 151.953 42.248C151.68 41.873 151.307 41.6855 150.834 41.6855C150.369 41.6855 150 41.8711 149.727 42.2422C149.453 42.6094 149.316 43.1602 149.316 43.8945ZM159.213 41.8086H156.459V47H155.041V40.6602H159.213V41.8086ZM163.977 40.6602H165.395V47H163.977V42.7695L161.492 47H160.074V40.6602H161.492V44.8906L163.977 40.6602ZM170.867 40.6602H172.285V47H170.867V42.7695L168.383 47H166.965V40.6602H168.383V44.8906L170.867 40.6602Z" fill="#788891"/>
<path d="M32.0665 13.8665C33.1949 13.8665 34.1483 14.5936 34.5071 15.5998H43.4927C43.8515 14.5936 44.8048 13.8665 45.9332 13.8665C47.3667 13.8665 48.5332 15.033 48.5332 16.4664C48.5332 17.8999 47.3667 19.0664 45.9332 19.0664C44.8048 19.0664 43.8515 18.3392 43.4927 17.3331H34.5062C34.1474 18.3392 33.1941 19.0664 32.0657 19.0664C30.6322 19.0664 29.4657 17.8999 29.4657 16.4664C29.4657 15.033 30.6331 13.8665 32.0665 13.8665ZM45.9332 17.3331C46.4107 17.3331 46.7999 16.9448 46.7999 16.4664C46.7999 15.988 46.4107 15.5998 45.9332 15.5998C45.4557 15.5998 45.0665 15.988 45.0665 16.4664C45.0665 16.9448 45.4557 17.3331 45.9332 17.3331ZM32.0665 17.3331C32.5441 17.3331 32.9332 16.9448 32.9332 16.4664C32.9332 15.988 32.5441 15.5998 32.0665 15.5998C31.589 15.5998 31.1999 15.988 31.1999 16.4664C31.1999 16.9448 31.589 17.3331 32.0665 17.3331Z" fill="#00B2FF"/>
<path d="M25.1333 19.2259V13.8665C25.1333 13.636 25.2243 13.4158 25.3872 13.2538L28.8539 9.78716C29.0159 9.62423 29.2369 9.53323 29.4666 9.53323H32.2261C32.5849 8.52705 33.5382 7.79993 34.6666 7.79993C36.1001 7.79993 37.2666 8.96644 37.2666 10.3999C37.2666 11.8333 36.1001 12.9998 34.6666 12.9998C33.5382 12.9998 32.5849 12.2727 32.2261 11.2665H29.8254L26.8666 14.2253V19.2259C27.8728 19.5847 28.5999 20.538 28.5999 21.6664C28.5999 23.0998 27.4334 24.2663 25.9999 24.2663C24.5665 24.2663 23.3999 23.0998 23.3999 21.6664C23.3999 20.538 24.1271 19.5847 25.1333 19.2259ZM34.6666 11.2665C35.1441 11.2665 35.5333 10.8783 35.5333 10.3999C35.5333 9.92149 35.1441 9.53323 34.6666 9.53323C34.1891 9.53323 33.7999 9.92149 33.7999 10.3999C33.7999 10.8783 34.1891 11.2665 34.6666 11.2665ZM25.9999 22.533C26.4775 22.533 26.8666 22.1448 26.8666 21.6664C26.8666 21.188 26.4775 20.7997 25.9999 20.7997C25.5224 20.7997 25.1333 21.188 25.1333 21.6664C25.1333 22.1448 25.5224 22.533 25.9999 22.533Z" fill="#00B2FF"/>
<path d="M9.53333 22.533C9.93373 22.533 10.3081 22.6309 10.647 22.7938L12.1333 21.3075V12.9998C12.1333 12.7693 12.2243 12.5491 12.3873 12.3871L21.0609 3.7136C20.8979 3.37474 20.8 3.00035 20.8 2.59996C20.8 1.16651 21.9665 0 23.4 0C24.8335 0 26 1.16651 26 2.59996C26 4.0334 24.8335 5.19991 23.4 5.19991C22.9996 5.19991 22.6252 5.10198 22.2863 4.93905L13.8667 13.3586V21.6663C13.8667 21.8968 13.7757 22.117 13.6127 22.279L11.8725 24.0193C12.0354 24.3581 12.1333 24.7325 12.1333 25.1329C12.1333 26.5664 10.9668 27.7329 9.53333 27.7329C8.09986 27.7329 6.93333 26.5664 6.93333 25.1329C6.93333 23.6995 8.09986 22.533 9.53333 22.533ZM23.4 3.46661C23.8775 3.46661 24.2667 3.07835 24.2667 2.59996C24.2667 2.12156 23.8775 1.7333 23.4 1.7333C22.9225 1.7333 22.5333 2.12156 22.5333 2.59996C22.5333 3.07835 22.9225 3.46661 23.4 3.46661ZM9.53333 25.9996C10.0109 25.9996 10.4 25.6113 10.4 25.1329C10.4 24.6545 10.0109 24.2663 9.53333 24.2663C9.0558 24.2663 8.66667 24.6545 8.66667 25.1329C8.66667 25.6113 9.0558 25.9996 9.53333 25.9996Z" fill="#00B2FF"/>
<path d="M1.73353 12.2926V8.66652C1.73353 8.43599 1.82453 8.21586 1.98746 8.0538L8.05413 1.98723C8.21619 1.8243 8.43719 1.7333 8.66686 1.7333H13.1597C13.5185 0.727121 14.4718 0 15.6002 0C17.0337 0 18.2002 1.16651 18.2002 2.59996C18.2002 4.0334 17.0337 5.19991 15.6002 5.19991C14.4718 5.19991 13.5185 4.47279 13.1597 3.46661H9.02566L3.46686 9.02532V12.2926C4.47306 12.6514 5.2002 13.6047 5.2002 14.7331C5.2002 16.1665 4.03366 17.333 2.60019 17.333C1.16673 17.333 0.00019455 16.1665 0.00019455 14.7331C0.00019455 13.6047 0.727329 12.6514 1.73353 12.2926ZM15.6002 3.46661C16.0777 3.46661 16.4669 3.07835 16.4669 2.59996C16.4669 2.12156 16.0777 1.7333 15.6002 1.7333C15.1227 1.7333 14.7335 2.12156 14.7335 2.59996C14.7335 3.07835 15.1227 3.46661 15.6002 3.46661ZM2.60019 15.5997C3.07773 15.5997 3.46686 15.2115 3.46686 14.7331C3.46686 14.2547 3.07773 13.8664 2.60019 13.8664C2.12266 13.8664 1.73353 14.2547 1.73353 14.7331C1.73353 15.2115 2.12266 15.5997 2.60019 15.5997Z" fill="#00B2FF"/>
<path d="M13.866 46.9595V34.5066C12.8607 34.1478 12.1335 33.1945 12.1335 32.0661C12.1335 30.6327 13.3001 29.4661 14.7335 29.4661C15.8619 29.4661 16.8153 30.1933 17.1741 31.1995H26.1597C26.5185 30.1933 27.4718 29.4661 28.6002 29.4661C29.7286 29.4661 30.6819 30.1933 31.0407 31.1995H36.0414L39.2611 27.9798C39.0981 27.641 39.0002 27.2666 39.0002 26.8662C39.0002 25.4327 40.1667 24.2662 41.6002 24.2662C43.0337 24.2662 44.2002 25.4327 44.2002 26.8662C44.2002 28.2996 43.0337 29.4661 41.6002 29.4661C41.1998 29.4661 40.8254 29.3682 40.4865 29.2053L37.0129 32.6788C36.8509 32.8418 36.6299 32.9328 36.4002 32.9328H31.0407C30.6819 33.9389 29.7286 34.6661 28.6002 34.6661C27.4718 34.6661 26.5185 33.9389 26.1597 32.9328H17.1732C16.9115 33.6668 16.3334 34.2449 15.5993 34.5066V46.9595C16.6055 47.3183 17.3327 48.2716 17.3327 49.4C17.3327 50.8335 16.1661 52 14.7327 52C13.2992 52 12.1327 50.8335 12.1327 49.4C12.1327 48.2716 12.8598 47.3183 13.866 46.9595ZM41.6002 27.7328C42.0777 27.7328 42.4669 27.3446 42.4669 26.8662C42.4669 26.3878 42.0777 25.9995 41.6002 25.9995C41.1227 25.9995 40.7335 26.3878 40.7335 26.8662C40.7335 27.3446 41.1227 27.7328 41.6002 27.7328ZM28.6002 32.9328C29.0777 32.9328 29.4669 32.5445 29.4669 32.0661C29.4669 31.5877 29.0777 31.1995 28.6002 31.1995C28.1227 31.1995 27.7335 31.5877 27.7335 32.0661C27.7335 32.5445 28.1227 32.9328 28.6002 32.9328ZM14.7335 50.2658C15.2111 50.2658 15.6002 49.8775 15.6002 49.3991C15.6002 48.9208 15.2111 48.5325 14.7335 48.5325C14.256 48.5325 13.8669 48.9208 13.8669 49.3991C13.8669 49.8775 14.256 50.2658 14.7335 50.2658ZM14.7335 32.9328C15.2111 32.9328 15.6002 32.5445 15.6002 32.0661C15.6002 31.5877 15.2111 31.1995 14.7335 31.1995C14.256 31.1995 13.8669 31.5877 13.8669 32.0661C13.8669 32.5445 14.256 32.9328 14.7335 32.9328Z" fill="#00B2FF"/>
<path d="M18.2002 17.4925V14.7331C18.2002 14.5026 18.2912 14.2824 18.4542 14.1204L28.8611 3.7136C28.6982 3.37474 28.6002 3.00035 28.6002 2.59996C28.6002 1.16651 29.7668 0 31.2002 0C32.3286 0 33.282 0.727121 33.6408 1.7333H37.2669C37.7453 1.7333 38.1336 2.1207 38.1336 2.59996V4.84112L41.3532 8.06073C41.6921 7.8978 42.0665 7.79987 42.4669 7.79987C43.9004 7.79987 45.0669 8.96638 45.0669 10.3998C45.0669 11.8333 43.9004 12.9998 42.4669 12.9998C41.0334 12.9998 39.8669 11.8333 39.8669 10.3998C39.8669 9.99943 39.9648 9.62504 40.1278 9.28618L36.6542 5.81264C36.4912 5.65057 36.4002 5.43044 36.4002 5.19991V3.46661H33.6408C33.282 4.47279 32.3286 5.19991 31.2002 5.19991C30.7998 5.19991 30.4254 5.10198 30.0866 4.93905L19.9336 15.0919V17.4925C20.9398 17.8513 21.6669 18.8046 21.6669 19.933C21.6669 21.3664 20.5004 22.533 19.0669 22.533C17.6334 22.533 16.4669 21.3664 16.4669 19.933C16.4669 18.8046 17.194 17.8513 18.2002 17.4925ZM42.4669 11.2665C42.9444 11.2665 43.3336 10.8782 43.3336 10.3998C43.3336 9.92143 42.9444 9.53317 42.4669 9.53317C41.9894 9.53317 41.6002 9.92143 41.6002 10.3998C41.6002 10.8782 41.9894 11.2665 42.4669 11.2665ZM31.2002 3.46661C31.6778 3.46661 32.0669 3.07835 32.0669 2.59996C32.0669 2.12156 31.6778 1.7333 31.2002 1.7333C30.7227 1.7333 30.3336 2.12156 30.3336 2.59996C30.3336 3.07835 30.7227 3.46661 31.2002 3.46661ZM19.0669 20.7997C19.5444 20.7997 19.9336 20.4114 19.9336 19.933C19.9336 19.4546 19.5444 19.0663 19.0669 19.0663C18.5894 19.0663 18.2002 19.4546 18.2002 19.933C18.2002 20.4114 18.5894 20.7997 19.0669 20.7997Z" fill="#00B2FF"/>
<path d="M20.8 24.2663C21.9284 24.2663 22.8817 24.9934 23.2405 25.9996H33.4412L38.3873 21.0536C38.5493 20.8906 38.7703 20.7997 39 20.7997H48.1745L50.2667 18.7076V11.6253L43.5803 4.93905C43.2415 5.10198 42.8671 5.19991 42.4667 5.19991C41.0332 5.19991 39.8667 4.0334 39.8667 2.59996C39.8667 1.16651 41.0332 0 42.4667 0C43.9001 0 45.0667 1.16651 45.0667 2.59996C45.0667 3.00035 44.9687 3.37474 44.8058 3.7136L51.7461 10.6538C51.909 10.8158 52 11.0359 52 11.2665V19.0663C52 19.2969 51.909 19.517 51.7461 19.6791L49.1461 22.279C48.984 22.442 48.763 22.533 48.5333 22.533H39.3588L34.4127 27.4789C34.2507 27.6419 34.0297 27.7329 33.8 27.7329H23.2405C22.8817 28.7391 21.9284 29.4662 20.8 29.4662C19.3665 29.4662 18.2 28.2997 18.2 26.8662C18.2 25.4328 19.3665 24.2663 20.8 24.2663ZM42.4667 1.7333C41.9891 1.7333 41.6 2.12156 41.6 2.59996C41.6 3.07835 41.9891 3.46661 42.4667 3.46661C42.9442 3.46661 43.3333 3.07835 43.3333 2.59996C43.3333 2.12156 42.9442 1.7333 42.4667 1.7333ZM20.8 27.7329C21.2775 27.7329 21.6667 27.3446 21.6667 26.8662C21.6667 26.3878 21.2775 25.9996 20.8 25.9996C20.3225 25.9996 19.9333 26.3878 19.9333 26.8662C19.9333 27.3446 20.3225 27.7329 20.8 27.7329Z" fill="#00B2FF"/>
<path d="M2.59997 20.7997C3.00037 20.7997 3.37477 20.8976 3.71363 21.0606L6.9333 17.841V12.8404C5.9271 12.4816 5.19997 11.5283 5.19997 10.3999C5.19997 8.96644 6.3665 7.79993 7.79997 7.79993C9.23343 7.79993 10.4 8.96644 10.4 10.3999C10.4 11.5283 9.67283 12.4816 8.66663 12.8404V18.1998C8.66663 18.4303 8.57563 18.6504 8.4127 18.8125L4.9391 22.286C5.10204 22.6249 5.19997 22.9993 5.19997 23.3997C5.19997 24.528 4.47283 25.4814 3.46663 25.8402V26.5075L10.146 33.1868C10.309 33.3488 10.4 33.569 10.4 33.7995V34.8256C11.4062 35.1844 12.1333 36.1377 12.1333 37.2661C12.1333 38.3945 11.4062 39.3478 10.4 39.7066V41.7597C11.4062 42.1185 12.1333 43.0718 12.1333 44.2002C12.1333 45.6336 10.9668 46.8001 9.5333 46.8001C8.09983 46.8001 6.9333 45.6336 6.9333 44.2002C6.9333 43.0718 7.66043 42.1185 8.66663 41.7597V39.7066C7.66043 39.3478 6.9333 38.3945 6.9333 37.2661C6.9333 36.1377 7.66043 35.1844 8.66663 34.8256V34.1583L1.98723 27.479C1.8243 27.3169 1.7333 27.0968 1.7333 26.8663V25.8402C0.7271 25.4814 -3.24249e-05 24.528 -3.24249e-05 23.3997C-3.24249e-05 21.9662 1.1665 20.7997 2.59997 20.7997ZM7.79997 11.2665C8.2775 11.2665 8.66663 10.8783 8.66663 10.3999C8.66663 9.92149 8.2775 9.53323 7.79997 9.53323C7.32243 9.53323 6.9333 9.92149 6.9333 10.3999C6.9333 10.8783 7.32243 11.2665 7.79997 11.2665ZM9.5333 45.066C10.0108 45.066 10.4 44.6777 10.4 44.1993C10.4 43.7209 10.0108 43.3327 9.5333 43.3327C9.05577 43.3327 8.66663 43.7209 8.66663 44.1993C8.66663 44.6777 9.05577 45.066 9.5333 45.066ZM9.5333 38.1328C10.0108 38.1328 10.4 37.7445 10.4 37.2661C10.4 36.7877 10.0108 36.3995 9.5333 36.3995C9.05577 36.3995 8.66663 36.7877 8.66663 37.2661C8.66663 37.7445 9.05577 38.1328 9.5333 38.1328ZM2.59997 24.2663C3.0775 24.2663 3.46663 23.8781 3.46663 23.3997C3.46663 22.9213 3.0775 22.533 2.59997 22.533C2.12243 22.533 1.7333 22.9213 1.7333 23.3997C1.7333 23.8781 2.12243 24.2663 2.59997 24.2663Z" fill="#00B2FF"/>
</symbol><symbol id="logo"><path d="M23.433 10.133c.825 0 1.522.532 1.784 1.267h6.566a1.897 1.897 0 011.784-1.267c1.047 0 1.9.853 1.9 1.9 0 1.048-.853 1.9-1.9 1.9a1.897 1.897 0 01-1.784-1.267h-6.567a1.897 1.897 0 01-1.783 1.267c-1.048 0-1.9-.852-1.9-1.9 0-1.047.853-1.9 1.9-1.9zm10.134 2.534a.634.634 0 10-.002-1.268.634.634 0 00.002 1.268zm-10.134 0a.634.634 0 10-.001-1.269.634.634 0 00.002 1.268z" fill="#00B2FF"/><path d="M18.367 14.05v-3.917a.63.63 0 01.185-.448l2.534-2.533a.632.632 0 01.447-.185h2.017A1.897 1.897 0 0125.333 5.7c1.048 0 1.9.852 1.9 1.9 0 1.047-.852 1.9-1.9 1.9a1.897 1.897 0 01-1.783-1.267h-1.754l-2.163 2.162v3.655a1.897 1.897 0 011.267 1.783c0 1.048-.852 1.9-1.9 1.9-1.047 0-1.9-.852-1.9-1.9 0-.825.531-1.521 1.267-1.783zm6.966-5.817a.634.634 0 100-1.268.634.634 0 000 1.268zM19 16.466a.634.634 0 100-1.268.634.634 0 000 1.268zm-12.033 0c.292 0 .566.072.814.191l1.086-1.086V9.5a.63.63 0 01.185-.448l6.339-6.338A1.87 1.87 0 0115.2 1.9c0-1.048.852-1.9 1.9-1.9 1.047 0 1.9.852 1.9 1.9 0 1.047-.852 1.9-1.9 1.9-.293 0-.566-.072-.814-.19l-6.153 6.152v6.071a.63.63 0 01-.185.448l-1.272 1.271c.12.248.19.522.19.814 0 1.048-.852 1.9-1.9 1.9-1.047 0-1.9-.852-1.9-1.9 0-1.047.853-1.9 1.9-1.9zM17.1 2.533a.634.634 0 10-.001-1.268.634.634 0 00.001 1.268zM6.967 19a.634.634 0 10-.002-1.268A.634.634 0 006.967 19zm-5.7-10.017v-2.65a.63.63 0 01.186-.448l4.433-4.433a.632.632 0 01.448-.185h3.283A1.897 1.897 0 0111.4 0c1.048 0 1.9.852 1.9 1.9 0 1.047-.852 1.9-1.9 1.9a1.897 1.897 0 01-1.783-1.267H6.596L2.534 6.595v2.388A1.897 1.897 0 013.8 10.767c0 1.047-.852 1.9-1.9 1.9-1.047 0-1.9-.853-1.9-1.9 0-.825.532-1.522 1.267-1.784zM11.4 2.533a.634.634 0 100-1.268.634.634 0 000 1.268zM1.9 11.4a.634.634 0 100-1.268.634.634 0 000 1.268zm8.233 22.917v-9.1a1.898 1.898 0 01-1.266-1.784c0-1.048.852-1.9 1.9-1.9.825 0 1.521.531 1.783 1.267h6.567a1.897 1.897 0 011.783-1.267c.825 0 1.522.531 1.784 1.267h3.654l2.353-2.353a1.87 1.87 0 01-.19-.814c0-1.047.852-1.9 1.9-1.9 1.047 0 1.9.852 1.9 1.9 0 1.047-.853 1.9-1.9 1.9a1.88 1.88 0 01-.814-.19l-2.539 2.538a.632.632 0 01-.448.185h-3.916a1.898 1.898 0 01-1.784 1.267 1.898 1.898 0 01-1.783-1.267H12.55a1.898 1.898 0 01-1.15 1.15v9.1a1.897 1.897 0 011.266 1.784c0 1.047-.852 1.9-1.9 1.9-1.047 0-1.9-.852-1.9-1.9 0-.825.532-1.521 1.267-1.783zM30.4 20.267a.634.634 0 100-1.268.634.634 0 000 1.267zm-9.5 3.8a.634.634 0 10-.001-1.269.634.634 0 00.001 1.268zM10.767 36.732a.634.634 0 10-.001-1.268.634.634 0 00.001 1.268zm0-12.667a.634.634 0 10-.001-1.268.634.634 0 00.001 1.268z" fill="#00B2FF"/><path d="M13.3 12.783v-2.016a.63.63 0 01.185-.448l7.605-7.605a1.868 1.868 0 01-.19-.814c0-1.048.852-1.9 1.9-1.9.824 0 1.521.531 1.783 1.267h2.65c.35 0 .633.283.633.633v1.638L30.22 5.89c.248-.12.521-.191.814-.191 1.048 0 1.9.852 1.9 1.9 0 1.047-.852 1.9-1.9 1.9-1.047 0-1.9-.853-1.9-1.9 0-.293.072-.566.19-.814l-2.538-2.538A.63.63 0 0126.6 3.8V2.533h-2.017A1.897 1.897 0 0122.8 3.8a1.87 1.87 0 01-.814-.19l-7.42 7.419v1.754a1.897 1.897 0 011.267 1.783c0 1.048-.852 1.9-1.9 1.9-1.047 0-1.9-.852-1.9-1.9 0-.824.532-1.52 1.267-1.783zm17.733-4.55a.634.634 0 10-.001-1.268.634.634 0 00.001 1.268zm-8.233-5.7a.634.634 0 10-.002-1.268.634.634 0 00.002 1.268zM13.933 15.2a.634.634 0 10-.001-1.268.634.634 0 00.001 1.268z" fill="#00B2FF"/><path d="M15.2 17.733c.825 0 1.521.531 1.784 1.267h7.454l3.614-3.615a.632.632 0 01.448-.185h6.705l1.528-1.53V8.496L31.847 3.61a1.87 1.87 0 01-.814.19c-1.047 0-1.9-.852-1.9-1.899 0-1.048.853-1.9 1.9-1.9 1.048 0 1.9.852 1.9 1.9 0 .293-.071.566-.19.814l5.071 5.071a.63.63 0 01.186.448v5.7a.63.63 0 01-.186.448l-1.9 1.9a.631.631 0 01-.447.185h-6.705l-3.614 3.615a.632.632 0 01-.448.185h-7.716a1.897 1.897 0 01-1.784 1.267c-1.047 0-1.9-.853-1.9-1.9s.852-1.9 1.9-1.9zM31.033 1.267a.634.634 0 10.002 1.268.634.634 0 00-.002-1.268zm-15.833 19a.634.634 0 10-.001-1.268.634.634 0 00.001 1.267zM1.9 15.2c.293 0 .567.071.814.19l2.353-2.352V9.383A1.897 1.897 0 013.801 7.6c0-1.048.852-1.9 1.9-1.9 1.047 0 1.9.852 1.9 1.9 0 .825-.532 1.521-1.267 1.783V13.3a.63.63 0 01-.186.448L3.61 16.286c.119.248.19.521.19.814 0 .824-.53 1.521-1.266 1.783v.488l4.881 4.88a.63.63 0 01.186.449v.75a1.897 1.897 0 011.266 1.783c0 .825-.531 1.521-1.266 1.783v1.5A1.897 1.897 0 018.867 32.3c0 1.048-.852 1.9-1.9 1.9-1.047 0-1.9-.852-1.9-1.9 0-.824.532-1.521 1.267-1.783v-1.5a1.897 1.897 0 01-1.267-1.784 1.9 1.9 0 011.267-1.784v-.487L1.453 20.08a.63.63 0 01-.186-.448v-.75A1.897 1.897 0 01.001 17.1c0-1.048.852-1.9 1.9-1.9zm3.8-6.967a.634.634 0 100-1.268.634.634 0 000 1.268zm1.267 24.7a.634.634 0 10-.001-1.268.634.634 0 00.001 1.268zm0-5.067a.634.634 0 10-.001-1.268.634.634 0 00.001 1.268zM1.901 17.733a.634.634 0 10-.002-1.268.634.634 0 00.002 1.268z" fill="#00B2FF"/></symbol></svg>